<?xml version="1.0"?>
<svg xmlns="http://www.w3.org/2000/svg" xmlns:xlink="http://www.w3.org/1999/xlink" xmlns:svgjs="http://svgjs.com/svgjs" version="1.1" width="512" height="512" x="0" y="0" viewBox="0 0 512 512" style="enable-background:new 0 0 512 512" xml:space="preserve" class=""><g><g xmlns="http://www.w3.org/2000/svg"><path d="m251.682 155.008h-.113c-.011 0-.021 0-.033 0-4.127 0-7.481 3.337-7.499 7.468-.018 4.142 3.325 7.514 7.468 7.532h.113.033c4.127 0 7.481-3.337 7.499-7.468.017-4.142-3.326-7.514-7.468-7.532z" fill="#ffffff" data-original="#000000" style="" class=""/><path d="m81.384 162.508c0-4.142-3.357-7.5-7.5-7.5h-.114c-4.143 0-7.5 3.358-7.5 7.5s3.357 7.5 7.5 7.5h.114c4.142 0 7.5-3.358 7.5-7.5z" fill="#ffffff" data-original="#000000" style="" class=""/><path d="m162.455 81.182c4.143 0 7.5-3.358 7.5-7.5v-.114c0-4.142-3.357-7.5-7.5-7.5s-7.5 3.358-7.5 7.5v.114c0 4.142 3.358 7.5 7.5 7.5z" fill="#ffffff" data-original="#000000" style="" class=""/><path d="m162.964 243.833c-4.143 0-7.5 3.358-7.5 7.5v.114c0 4.142 3.357 7.5 7.5 7.5s7.5-3.358 7.5-7.5v-.114c0-4.142-3.358-7.5-7.5-7.5z" fill="#ffffff" data-original="#000000" style="" class=""/><path d="m124.523 81.876c-2.063-3.592-6.644-4.831-10.239-2.769-3.592 2.063-4.831 6.647-2.769 10.239l.057.099c1.387 2.415 3.912 3.767 6.511 3.767 1.267 0 2.551-.322 3.729-.998 3.592-2.063 4.831-6.647 2.769-10.239z" fill="#ffffff" data-original="#000000" style="" class=""/><path d="m89.416 111.826-.099-.057c-3.583-2.075-8.172-.854-10.249 2.73-2.076 3.584-.854 8.173 2.731 10.249l.099.057c1.184.686 2.476 1.012 3.752 1.012 2.588 0 5.106-1.342 6.497-3.743 2.077-3.584.854-8.173-2.731-10.248z" fill="#ffffff" data-original="#000000" style="" class=""/><path d="m243.62 200.267-.099-.057c-3.583-2.075-8.172-.853-10.249 2.73-2.076 3.584-.854 8.173 2.731 10.249l.099.057c1.184.686 2.476 1.012 3.752 1.012 2.588 0 5.106-1.342 6.497-3.743 2.077-3.583.854-8.172-2.731-10.248z" fill="#ffffff" data-original="#000000" style="" class=""/><path d="m211.135 79.107c-3.593-2.064-8.176-.823-10.239 2.769l-.057.099c-2.063 3.592-.823 8.176 2.769 10.239 1.178.676 2.462.998 3.729.998 2.598 0 5.124-1.352 6.511-3.767l.057-.099c2.061-3.592.822-8.176-2.77-10.239z" fill="#ffffff" data-original="#000000" style="" class=""/><path d="m121.812 232.802c-3.593-2.063-8.177-.823-10.239 2.769l-.057.099c-2.063 3.592-.823 8.176 2.769 10.239 1.178.676 2.462.998 3.729.998 2.598 0 5.124-1.352 6.511-3.767l.057-.099c2.061-3.592.821-8.176-2.77-10.239z" fill="#ffffff" data-original="#000000" style="" class=""/><path d="m239.769 125.816c1.276 0 2.569-.326 3.752-1.012l.099-.057c3.585-2.076 4.808-6.665 2.731-10.249-2.076-3.585-6.669-4.806-10.249-2.731l-.099.057c-3.585 2.076-4.808 6.665-2.731 10.249 1.39 2.402 3.909 3.743 6.497 3.743z" fill="#ffffff" data-original="#000000" style="" class=""/><path d="m81.898 200.21-.099.057c-3.585 2.076-4.808 6.665-2.731 10.249 1.391 2.401 3.909 3.742 6.497 3.742 1.276 0 2.569-.326 3.752-1.012l.099-.057c3.585-2.076 4.808-6.665 2.731-10.249-2.076-3.585-6.668-4.806-10.249-2.73z" fill="#ffffff" data-original="#000000" style="" class=""/><path d="m213.847 235.571c-2.063-3.592-6.646-4.831-10.239-2.769-3.592 2.063-4.831 6.647-2.769 10.239l.057.099c1.387 2.415 3.912 3.767 6.511 3.767 1.267 0 2.551-.322 3.729-.998 3.592-2.063 4.831-6.647 2.769-10.239z" fill="#ffffff" data-original="#000000" style="" class=""/><path d="m205.322 195.596-18.143-30.25c.093-.866.143-1.745.143-2.636 0-10.862-7.076-20.097-16.857-23.354v-41.286c0-4.142-3.357-7.5-7.5-7.5s-7.5 3.358-7.5 7.5v41.117c-10.047 3.1-17.368 12.472-17.368 23.523 0 10.386 6.469 19.283 15.587 22.891l18.069 30.129c2.441 4.07 6.768 6.327 11.199 6.327 2.28 0 4.589-.598 6.683-1.854l11.215-6.726c6.161-3.696 8.168-11.717 4.472-17.881zm-42.612-42.499c5.3 0 9.612 4.313 9.612 9.613s-4.313 9.613-9.612 9.613c-5.301 0-9.613-4.313-9.613-9.613s4.312-9.613 9.613-9.613zm20.895 53.231-12.324-20.548c2.906-1.083 5.553-2.702 7.824-4.734l12.342 20.578z" fill="#ffffff" data-original="#000000" style="" class=""/><path d="m349.291 442.412c32.814 0 62.589-16.765 79.646-44.845 2.15-3.54 1.023-8.153-2.517-10.304-3.54-2.15-8.153-1.025-10.304 2.517-14.314 23.564-39.296 37.632-66.826 37.632s-52.512-14.068-66.825-37.632c-2.15-3.541-6.765-4.666-10.304-2.517-3.54 2.15-4.667 6.764-2.517 10.304 17.058 28.08 46.832 44.845 79.647 44.845z" fill="#ffffff" data-original="#000000" style="" class=""/><path d="m349.291 256.17c-32.812 0-62.585 16.76-79.645 44.833-2.151 3.54-1.025 8.153 2.515 10.304 3.538 2.15 8.152 1.025 10.304-2.514 14.316-23.558 39.298-37.623 66.826-37.623s52.51 14.064 66.827 37.623c1.412 2.323 3.883 3.606 6.416 3.606 1.327 0 2.672-.352 3.889-1.092 3.539-2.151 4.665-6.765 2.514-10.304-17.061-28.073-46.834-44.833-79.646-44.833z" fill="#ffffff" data-original="#000000" style="" class=""/><path d="m349.29 186.58c-8.813 0-17.478.711-25.939 2.072 1.368-8.546 2.068-17.236 2.068-25.943 0-37.438-13.033-73.994-36.699-102.934-2.621-3.206-7.346-3.681-10.554-1.058-3.206 2.622-3.68 7.347-1.058 10.554 21.48 26.267 33.311 59.451 33.311 93.438 0 9.875-.989 19.72-2.919 29.315-8.309 2.207-16.37 5.056-24.121 8.495 3.814-12.149 5.747-24.803 5.747-37.81 0-69.707-56.71-126.417-126.416-126.417-69.707 0-126.417 56.71-126.417 126.417s56.71 126.417 126.417 126.417c12.987 0 25.625-1.928 37.759-5.732-3.422 7.727-6.266 15.779-8.467 24.109-9.586 1.927-19.43 2.915-29.292 2.915-81.447.001-147.71-66.261-147.71-147.708s66.263-147.71 147.71-147.71c32.425 0 63.2 10.313 89 29.822 3.303 2.499 8.008 1.846 10.506-1.458s1.845-8.007-1.459-10.506c-28.425-21.495-62.329-32.858-98.047-32.858-89.719 0-162.71 72.992-162.71 162.71s72.991 162.709 162.71 162.709c8.704 0 17.399-.696 25.947-2.064-.332 2.074-.635 4.158-.888 6.259-.496 4.112 2.436 7.848 6.548 8.344 4.117.501 7.849-2.435 8.345-6.548 8.927-74.015 71.964-129.83 146.629-129.831 81.447 0 147.71 66.262 147.71 147.71-.001 81.448-66.263 147.711-147.71 147.711-74.922 0-137.983-56.031-146.688-130.333-.481-4.115-4.212-7.06-8.322-6.577-4.113.482-7.058 4.208-6.576 8.322 9.59 81.858 79.057 143.588 161.586 143.588 89.718 0 162.709-72.992 162.709-162.71 0-89.719-72.991-162.71-162.71-162.71zm-137.992 76.429c-.026.012-.052.02-.077.033-15.184 7.355-31.505 11.085-48.511 11.085-61.436 0-111.417-49.981-111.417-111.417s49.981-111.417 111.417-111.417c61.435 0 111.416 49.981 111.416 111.417 0 17.033-3.74 33.377-11.117 48.577-.014.03-.024.06-.038.09-20.83 13.05-38.557 30.7-51.673 51.632z" fill="#ffffff" data-original="#000000" style="" class=""/><path d="m329.461 224.426c-29.421 4.638-56.391 19.678-75.942 42.349-19.762 22.914-30.645 52.218-30.645 82.515 0 69.706 56.71 126.416 126.416 126.416 69.707 0 126.417-56.71 126.417-126.416 0-30.352-10.918-59.698-30.744-82.632-19.618-22.694-46.666-37.711-76.158-42.284-4.092-.631-7.926 2.17-8.561 6.263s2.169 7.926 6.262 8.561c25.981 4.028 49.814 17.264 67.109 37.271 17.471 20.209 27.092 46.071 27.092 72.822 0 61.435-49.981 111.416-111.417 111.416-61.435 0-111.416-49.981-111.416-111.416 0-26.701 9.59-52.527 27.004-72.719 17.235-19.986 41.001-33.242 66.919-37.328 4.092-.645 6.886-4.485 6.24-8.577-.643-4.09-4.482-6.88-8.576-6.241z" fill="#ffffff" data-original="#000000" style="" class=""/><path d="m349.29 291.17c-4.143 0-7.5 3.358-7.5 7.5v8.295c-4.531 1.27-8.718 3.681-12.215 7.113-5.565 5.462-8.758 13.044-8.758 20.803 0 5.84 2.274 11.339 6.426 15.508 4.146 4.128 9.646 6.402 15.485 6.402h13.126c3.811 0 6.91 3.095 6.91 6.899 0 7.556-6.18 13.938-13.495 13.938h-.307c-5.634-.137-10.62-3.798-12.423-9.125-1.327-3.923-5.584-6.028-9.508-4.701-3.924 1.328-6.028 5.584-4.701 9.508 3.067 9.064 10.484 15.836 19.459 18.3v8.288c0 4.142 3.357 7.5 7.5 7.5s7.5-3.358 7.5-7.5v-8.299c12.073-3.36 20.975-14.595 20.975-27.908 0-12.075-9.829-21.899-21.91-21.899h-13.126c-1.846 0-3.586-.721-4.879-2.009-1.311-1.315-2.032-3.056-2.032-4.901 0-3.757 1.555-7.438 4.265-10.098 2.599-2.55 5.961-3.903 9.472-3.854 5.653.111 10.673 3.786 12.491 9.145 1.331 3.923 5.591 6.024 9.513 4.693s6.023-5.59 4.692-9.512c-3.075-9.064-10.492-15.836-19.46-18.302v-8.282c0-4.144-3.357-7.502-7.5-7.502z" fill="#ffffff" data-original="#000000" style="" class=""/><path d="m270.978 343.677h9.27c4.143 0 7.5-3.358 7.5-7.5s-3.357-7.5-7.5-7.5h-9.27c-4.143 0-7.5 3.358-7.5 7.5s3.357 7.5 7.5 7.5z" fill="#ffffff" data-original="#000000" style="" class=""/><path d="m270.978 369.891h9.27c4.143 0 7.5-3.358 7.5-7.5s-3.357-7.5-7.5-7.5h-9.27c-4.143 0-7.5 3.358-7.5 7.5s3.357 7.5 7.5 7.5z" fill="#ffffff" data-original="#000000" style="" class=""/><path d="m427.604 328.677h-9.271c-4.143 0-7.5 3.358-7.5 7.5s3.357 7.5 7.5 7.5h9.271c4.143 0 7.5-3.358 7.5-7.5s-3.358-7.5-7.5-7.5z" fill="#ffffff" data-original="#000000" style="" class=""/><path d="m435.104 362.391c0-4.142-3.357-7.5-7.5-7.5h-9.271c-4.143 0-7.5 3.358-7.5 7.5s3.357 7.5 7.5 7.5h9.271c4.142 0 7.5-3.358 7.5-7.5z" fill="#ffffff" data-original="#000000" style="" class=""/><path d="m374.1 137.867-6.326 6.326c-4.981 4.982-6.425 12.394-3.676 18.881 2.712 6.4 8.906 10.494 15.837 10.494.095 0 .19-.001.286-.002l66.403-1.079c9.339-.152 16.773-7.587 16.925-16.925l1.079-66.403c.114-7.045-4.004-13.374-10.491-16.123-6.489-2.749-13.898-1.306-18.881 3.676l-6.326 6.327-30.626-30.626c-6.711-6.709-17.625-6.709-24.336 0l-30.495 30.496c-6.708 6.708-6.708 17.625 0 24.333zm-20.02-44.355 30.495-30.495c.43-.43.995-.646 1.561-.646s1.131.215 1.561.646l35.93 35.93c2.93 2.929 7.678 2.929 10.607 0l11.63-11.63c.866-.869 1.796-.736 2.421-.471s1.365.838 1.346 2.068l-1.079 66.403c-.02 1.198-.973 2.151-2.171 2.171l-66.403 1.079c-1.191.045-1.803-.721-2.067-1.346-.266-.625-.398-1.552.472-2.422l11.629-11.629c2.929-2.929 2.929-7.678 0-10.606l-35.93-35.93c-.862-.861-.862-2.261-.002-3.122z" fill="#ffffff" data-original="#000000" style="" class=""/><path d="m137.898 374.135 6.326-6.326h.001c4.981-4.982 6.425-12.393 3.676-18.881-2.712-6.399-8.907-10.494-15.837-10.494-.095 0-.19.001-.286.002l-66.403 1.079c-9.339.152-16.773 7.587-16.925 16.925l-1.079 66.403c-.114 7.045 4.004 13.374 10.491 16.123 6.487 2.748 13.898 1.305 18.881-3.676l6.326-6.327 30.626 30.626c3.25 3.25 7.571 5.04 12.168 5.04 4.596 0 8.917-1.79 12.167-5.04l30.494-30.495c3.251-3.25 5.04-7.571 5.04-12.167s-1.789-8.917-5.039-12.167zm20.02 44.354-30.495 30.495c-.859.861-2.261.86-3.12 0l-35.93-35.93c-1.465-1.464-3.385-2.197-5.304-2.197s-3.839.732-5.304 2.197l-11.63 11.63c-.868.868-1.796.735-2.421.471-.625-.265-1.365-.838-1.346-2.068l1.079-66.403c.02-1.198.973-2.151 2.171-2.171l66.403-1.079c1.199-.045 1.804.721 2.067 1.346.265.625.398 1.552-.472 2.422h.001l-11.63 11.629c-1.407 1.406-2.197 3.314-2.197 5.303s.79 3.896 2.196 5.303l35.931 35.931c.534.534.646 1.143.646 1.56s-.11 1.027-.645 1.561z" fill="#ffffff" data-original="#000000" style="" class=""/></g></g></svg>
